if (_typeface_js && _typeface_js.loadFace) _typeface_js.loadFace({"glyphs":{"S":{"x_min":50.09375,"x_max":830.828125,"ha":877,"o":"m 601 262 q 566 342 601 314 q 442 403 532 371 q 165 529 255 462 q 75 724 75 597 q 182 925 75 848 q 455 1002 290 1002 q 724 917 619 1002 q 826 700 829 833 l 824 696 l 602 696 q 562 792 602 755 q 451 829 522 829 q 343 798 382 829 q 303 723 303 768 q 343 653 303 679 q 492 588 383 627 q 745 464 660 538 q 830 263 830 391 q 729 59 830 133 q 460 -14 628 -14 q 169 70 292 -14 q 50 313 46 154 l 51 317 l 274 317 q 320 195 274 232 q 460 158 366 158 q 566 187 531 158 q 601 262 601 215 "},"/":{"x_min":-19.671875,"x_max":480.1875,"ha":488,"o":"m 142 -85 l -19 -85 l 317 988 l 480 988 l 142 -85 "},"‥":{"x_min":99.234375,"x_max":659.796875,"ha":759,"o":"m 327 0 l 99 0 l 99 192 l 327 192 l 327 0 m 659 0 l 431 0 l 431 192 l 659 192 l 659 0 "},"y":{"x_min":-3.390625,"x_max":719.59375,"ha":714,"o":"m 349 323 l 349 318 l 354 318 l 475 734 l 719 734 l 427 -108 q 339 -243 393 -190 q 169 -296 286 -296 q 120 -292 139 -296 q 61 -278 101 -288 l 88 -114 q 103 -117 98 -116 q 115 -118 107 -118 q 194 -103 169 -118 q 231 -55 219 -87 l 250 -8 l -3 734 l 240 734 l 349 323 "},"‗":{"x_min":0,"x_max":612.4375,"ha":611,"o":"m 612 -350 l 0 -350 l 0 -180 l 612 -180 l 612 -350 m 612 -170 l 0 -170 l 0 0 l 612 0 l 612 -170 "},"g":{"x_min":34.59375,"x_max":714.84375,"ha":781,"o":"m 34 365 q 109 641 34 536 q 320 747 183 747 q 422 719 378 747 q 498 641 466 692 l 514 734 l 714 734 l 714 28 q 613 -207 714 -118 q 341 -296 512 -296 q 222 -280 284 -296 q 103 -238 160 -264 l 141 -68 q 236 -101 191 -90 q 340 -111 282 -111 q 448 -73 411 -111 q 485 30 485 -35 l 485 67 q 413 6 454 27 q 318 -14 371 -14 q 108 86 183 -14 q 34 351 34 186 l 34 365 m 263 351 q 289 212 263 261 q 377 162 315 162 q 441 173 414 162 q 485 209 467 185 l 485 516 q 441 556 468 542 q 378 570 415 570 q 290 514 317 570 q 263 365 263 458 l 263 351 "},"́":{"x_min":-567,"x_max":-300.453125,"ha":0,"o":"m -472 1011 l -300 1011 l -432 813 l -567 813 l -472 1011 "},"–":{"x_min":110.03125,"x_max":845.359375,"ha":958,"o":"m 845 391 l 110 391 l 110 571 l 845 571 l 845 391 "},"e":{"x_min":44.765625,"x_max":702.640625,"ha":735,"o":"m 400 -14 q 141 87 238 -14 q 44 342 44 189 l 44 368 q 132 641 44 535 q 383 747 220 747 q 617 657 533 747 q 702 414 702 568 l 702 295 l 283 295 l 282 290 q 328 198 289 234 q 431 162 366 162 q 535 172 496 162 q 634 207 574 182 l 688 68 q 563 9 640 32 q 400 -14 487 -14 m 383 570 q 309 535 334 570 q 279 441 284 500 l 281 438 l 478 438 l 478 455 q 455 540 478 511 q 383 570 432 570 "},"J":{"x_min":41.25,"x_max":728.40625,"ha":806,"o":"m 499 988 l 728 988 l 728 310 q 630 73 728 161 q 385 -14 532 -14 q 131 63 224 -14 q 41 291 37 140 l 42 295 l 266 295 q 299 193 266 224 q 385 162 333 162 q 465 201 432 162 q 499 310 499 239 l 499 988 "}," ":{"x_min":0,"x_max":0,"ha":708},"˘":{"x_min":68.265625,"x_max":561.046875,"ha":629,"o":"m 559 988 l 560 983 q 496 836 564 893 q 314 779 428 779 q 132 836 200 779 q 68 983 64 893 l 69 988 l 234 988 q 254 935 234 955 q 314 915 273 915 q 374 935 355 915 q 394 988 394 955 l 559 988 "},"^":{"x_min":24.421875,"x_max":599.546875,"ha":621,"o":"m 196 494 l 24 494 l 227 988 l 396 988 l 599 494 l 427 494 l 315 775 l 312 787 l 308 787 l 305 775 l 196 494 "},"D":{"x_min":77.3125,"x_max":843.03125,"ha":907,"o":"m 77 0 l 77 988 l 434 988 q 725 874 608 988 q 843 582 843 760 l 843 405 q 725 113 843 226 q 434 0 608 0 l 77 0 m 307 811 l 307 176 l 418 176 q 561 239 510 176 q 613 405 613 301 l 613 584 q 561 749 613 686 q 418 811 510 811 l 307 811 "}," ":{"x_min":0,"x_max":0,"ha":380},"ˆ":{"x_min":81,"x_max":623,"ha":701,"o":"m 623 863 l 623 849 l 443 849 l 350 934 l 257 849 l 81 849 l 81 866 l 284 1029 l 415 1029 l 623 863 "},"w":{"x_min":14.25,"x_max":990.203125,"ha":1007,"o":"m 695 308 l 699 308 l 778 734 l 990 734 l 817 0 l 623 0 l 504 389 l 500 389 l 380 0 l 187 0 l 14 734 l 225 734 l 306 305 l 310 305 l 430 734 l 574 734 l 695 308 "},"$":{"x_min":59.609375,"x_max":746.109375,"ha":804,"o":"m 515 261 q 489 344 515 315 q 398 402 463 374 q 165 532 238 466 q 92 724 92 597 q 169 913 92 839 q 375 1000 246 987 l 375 1143 l 483 1143 l 483 997 q 676 896 605 979 q 746 685 748 814 l 744 682 l 520 682 q 491 792 520 756 q 415 829 463 829 q 344 799 367 829 q 321 723 321 769 q 346 647 321 676 q 438 588 370 617 q 670 454 596 520 q 744 263 744 387 q 669 73 744 145 q 470 -11 595 1 l 470 -148 l 362 -148 l 362 -11 q 143 80 230 1 q 59 312 56 159 l 61 316 l 284 316 q 321 195 284 232 q 416 158 358 158 q 490 187 465 158 q 515 261 515 215 "},"\\":{"x_min":-10.859375,"x_max":630.75,"ha":591,"o":"m -10 988 l 218 988 l 630 -85 l 400 -85 l -10 988 "},"’":{"x_min":31.203125,"x_max":253.65625,"ha":270,"o":"m 253 926 l 143 689 l 31 689 l 71 927 l 71 1058 l 253 1058 l 253 926 "},"-":{"x_min":103.09375,"x_max":510.703125,"ha":625,"o":"m 510 336 l 103 336 l 103 514 l 510 514 l 510 336 "},"Q":{"x_min":60.359375,"x_max":959,"ha":984,"o":"m 899 405 q 871 244 899 319 q 793 114 844 169 l 959 -45 l 819 -159 l 642 13 q 564 -6 604 0 q 481 -14 524 -14 q 177 104 293 -14 q 60 405 60 222 l 60 582 q 176 883 60 764 q 480 1002 293 1002 q 782 883 666 1002 q 899 582 899 764 l 899 405 m 670 584 q 620 757 670 690 q 480 825 571 825 q 338 758 387 825 q 288 584 288 690 l 288 405 q 338 230 288 297 q 481 162 388 162 q 621 230 571 162 q 670 405 670 297 l 670 584 "},"M":{"x_min":77.3125,"x_max":1129.921875,"ha":1207,"o":"m 378 988 l 599 296 l 603 296 l 827 988 l 1129 988 l 1129 0 l 900 0 l 900 245 l 921 696 l 917 697 l 679 0 l 524 0 l 289 690 l 285 690 l 307 245 l 307 0 l 77 0 l 77 988 l 378 988 "},"C":{"x_min":54.265625,"x_max":849.140625,"ha":893,"o":"m 846 346 l 847 342 q 745 77 841 169 q 466 -14 649 -14 q 168 98 283 -14 q 54 390 54 211 l 54 597 q 164 889 54 776 q 451 1002 274 1002 q 737 907 638 1002 q 849 639 836 813 l 847 635 l 624 635 q 581 778 619 732 q 451 825 543 825 q 328 762 373 825 q 283 598 283 700 l 283 390 q 332 225 283 288 q 466 162 381 162 q 583 206 549 162 q 623 346 618 250 l 846 346 "},"̉":{"x_min":-523.59375,"x_max":-232.625,"ha":0,"o":"m -508 865 l -523 950 q -453 962 -474 951 q -434 991 -431 972 l -434 995 q -454 1028 -431 1019 q -522 1038 -477 1038 l -517 1136 q -305 1101 -379 1136 q -232 1002 -232 1065 q -262 936 -232 960 q -334 907 -291 912 l -334 865 l -508 865 "},"!":{"x_min":78,"x_max":307.90625,"ha":383,"o":"m 307 350 l 78 350 l 78 988 l 307 988 l 307 350 m 307 0 l 78 0 l 78 191 l 307 191 l 307 0 "},"―":{"x_min":108.5,"x_max":1013.515625,"ha":1136,"o":"m 1013 391 l 108 391 l 108 571 l 1013 571 l 1013 391 "},"{":{"x_min":27.125,"x_max":423.890625,"ha":451,"o":"m 381 -244 q 192 -125 248 -206 q 137 71 137 -44 l 137 209 q 109 306 137 271 q 27 342 82 342 l 27 496 q 109 530 82 496 q 137 629 137 565 l 137 767 q 192 964 137 883 q 381 1083 248 1045 l 423 963 q 354 893 374 943 q 335 767 335 843 l 335 629 q 303 504 335 559 q 209 419 272 449 q 303 332 272 387 q 335 209 335 278 l 335 71 q 354 -54 335 -4 q 423 -124 374 -104 l 381 -244 "},"X":{"x_min":9.5,"x_max":888.46875,"ha":886,"o":"m 439 654 l 602 988 l 866 988 l 583 498 l 888 0 l 610 0 l 442 339 l 274 0 l 9 0 l 299 498 l 16 988 l 279 988 l 439 654 "},"#":{"x_min":25.09375,"x_max":781.984375,"ha":807,"o":"m 419 277 l 310 277 l 265 0 l 130 0 l 175 277 l 25 277 l 25 402 l 196 402 l 225 581 l 75 581 l 75 705 l 246 705 l 293 988 l 427 988 l 381 705 l 490 705 l 537 988 l 672 988 l 625 705 l 781 705 l 781 581 l 604 581 l 575 402 l 730 402 l 730 277 l 554 277 l 509 0 l 374 0 l 419 277 m 330 402 l 440 402 l 470 581 l 360 581 l 330 402 "},"̣":{"x_min":-534.4375,"x_max":-276.03125,"ha":0,"o":"m -276 -245 l -534 -245 l -534 -69 l -276 -69 l -276 -245 "},")":{"x_min":29.84375,"x_max":427.28125,"ha":492,"o":"m 427 382 q 320 -59 427 129 q 75 -300 214 -248 l 71 -300 l 29 -192 q 172 14 115 -127 q 229 381 229 156 l 229 402 q 172 770 229 627 q 29 976 115 912 l 71 1084 l 75 1084 q 320 843 214 1032 q 427 401 427 654 l 427 382 "},"}":{"x_min":27.8125,"x_max":424.5625,"ha":451,"o":"m 27 -124 q 96 -54 76 -104 q 116 71 116 -4 l 116 209 q 147 333 116 279 q 242 419 178 388 q 147 504 178 449 q 116 629 116 559 l 116 767 q 96 893 116 843 q 27 963 76 943 l 70 1083 q 258 964 202 1045 q 314 767 314 883 l 314 629 q 341 530 314 565 q 424 496 368 496 l 424 342 q 341 306 368 342 q 314 209 314 271 l 314 71 q 258 -125 314 -44 q 70 -244 202 -206 l 27 -124 "},"‰":{"x_min":68.5,"x_max":1297.4375,"ha":1337,"o":"m 549 241 q 609 386 549 327 q 769 445 669 445 q 858 427 819 445 q 923 377 897 409 q 988 427 948 409 q 1077 445 1027 445 q 1237 386 1178 445 q 1297 241 1297 327 l 1297 189 q 1238 44 1297 102 q 1079 -14 1178 -14 q 988 3 1028 -14 q 923 53 948 21 q 858 3 897 21 q 770 -14 819 -14 q 609 44 670 -14 q 549 189 549 102 l 549 241 m 68 797 q 124 942 68 883 q 272 1002 179 1002 q 433 943 373 1002 q 493 797 493 884 l 493 745 q 433 601 493 659 q 274 542 373 542 q 124 601 180 542 q 68 745 68 659 l 68 797 m 1005 189 q 1026 133 1005 156 q 1079 109 1047 109 q 1136 130 1121 109 q 1150 189 1150 151 l 1150 241 q 1131 298 1150 274 q 1077 321 1112 321 q 1023 298 1042 321 q 1005 241 1005 275 l 1005 189 m 696 189 q 717 133 696 156 q 770 109 739 109 q 827 130 812 109 q 842 189 842 151 l 842 241 q 823 298 842 274 q 769 321 803 321 q 715 298 733 321 q 696 241 696 275 l 696 189 m 200 745 q 219 689 200 711 q 274 666 238 666 q 327 689 308 666 q 345 745 345 711 l 345 797 q 326 855 345 831 q 272 878 307 878 q 218 855 237 878 q 200 797 200 831 l 200 745 m 337 74 l 230 127 l 712 899 l 819 845 l 337 74 "},"a":{"x_min":30.515625,"x_max":713.484375,"ha":737,"o":"m 486 1 q 469 40 477 18 q 456 85 461 61 q 377 12 423 39 q 265 -14 331 -14 q 95 46 161 -14 q 30 207 30 106 q 112 375 30 316 q 360 435 193 435 l 444 435 l 444 486 q 422 558 444 533 q 354 583 400 583 q 295 565 314 583 q 276 507 276 546 l 54 508 l 52 512 q 136 679 48 612 q 369 747 224 747 q 589 679 505 747 q 674 485 674 611 l 674 209 q 683 99 674 150 q 713 0 693 49 l 486 1 m 335 149 q 398 163 369 149 q 444 198 426 176 l 444 312 l 362 312 q 283 286 308 312 q 259 219 259 260 q 280 168 259 188 q 335 149 301 149 "},"—":{"x_min":108.5,"x_max":1013.515625,"ha":1136,"o":"m 1013 391 l 108 391 l 108 571 l 1013 571 l 1013 391 "},"=":{"x_min":86.8125,"x_max":714.84375,"ha":810,"o":"m 714 496 l 86 496 l 86 672 l 714 672 l 714 496 m 714 198 l 86 198 l 86 375 l 714 375 l 714 198 "},"N":{"x_min":77.3125,"x_max":901.359375,"ha":979,"o":"m 901 0 l 672 0 l 311 629 l 307 628 l 307 0 l 77 0 l 77 988 l 307 988 l 668 358 l 672 359 l 672 988 l 901 988 l 901 0 "},"˚":{"x_min":86.8125,"x_max":375.734375,"ha":457,"o":"m 86 877 q 128 970 86 932 q 232 1008 170 1008 q 334 970 293 1008 q 375 877 375 932 q 334 785 375 821 q 232 749 293 749 q 128 785 170 749 q 86 877 86 821 m 168 877 q 186 831 168 848 q 232 813 204 813 q 276 830 259 813 q 293 877 293 848 q 276 924 293 906 q 232 942 259 942 q 186 924 204 942 q 168 877 168 906 "},"⁄":{"x_min":10.171875,"x_max":598.875,"ha":612,"o":"m 116 74 l 10 127 l 492 899 l 598 845 l 116 74 "},"2":{"x_min":43.953125,"x_max":751.46875,"ha":804,"o":"m 751 0 l 60 0 l 60 149 l 377 483 q 466 606 438 552 q 495 700 495 660 q 466 791 495 757 q 379 825 437 825 q 298 781 328 825 q 269 670 269 738 l 45 670 l 44 674 q 133 906 40 811 q 379 1002 226 1002 q 633 921 542 1002 q 725 702 725 841 q 676 537 725 609 q 497 323 628 465 l 364 180 l 366 176 l 751 176 l 751 0 "},"Z":{"x_min":43.40625,"x_max":777.25,"ha":811,"o":"m 327 176 l 777 176 l 777 0 l 45 0 l 45 103 l 486 811 l 43 811 l 43 988 l 771 988 l 771 888 l 327 176 "},"":{"x_min":27.8125,"x_max":208.890625,"ha":300,"o":"m 208 77 l 118 -82 l 27 -82 l 69 83 l 69 193 l 208 193 l 208 77 "}," ":{"x_min":0,"x_max":0,"ha":236},"u":{"x_min":59.6875,"x_max":719.59375,"ha":781,"o":"m 505 87 q 418 12 470 38 q 303 -14 367 -14 q 124 59 189 -14 q 59 286 59 132 l 59 734 l 288 734 l 288 285 q 311 192 288 223 q 378 162 335 162 q 442 172 415 162 q 490 203 470 182 l 490 734 l 719 734 l 719 0 l 519 0 l 505 87 "},"˜":{"x_min":75.328125,"x_max":601.625,"ha":669,"o":"m 601 1004 q 560 892 601 938 q 459 846 520 846 q 347 874 411 846 q 248 903 283 903 q 210 880 225 903 q 196 828 196 858 l 75 862 q 115 973 75 926 q 217 1020 156 1020 q 323 992 255 1020 q 428 964 392 964 q 464 985 449 964 q 480 1038 480 1007 l 601 1004 "},"k":{"x_min":65.109375,"x_max":779.953125,"ha":759,"o":"m 333 292 l 294 292 l 294 0 l 65 0 l 65 1058 l 294 1058 l 294 465 l 324 465 l 481 734 l 744 734 l 516 402 l 779 0 l 518 0 l 333 292 "}," ":{"x_min":0,"x_max":0,"ha":708},"ˇ":{"x_min":53.21875,"x_max":612.75,"ha":668,"o":"m 334 957 l 403 1036 l 612 1036 l 612 1025 l 414 849 l 252 849 l 53 1026 l 53 1036 l 264 1036 l 334 957 "},"̀":{"x_min":-527.65625,"x_max":-260.4375,"ha":0,"o":"m -260 807 l -395 807 l -527 1005 l -356 1005 l -260 807 "},"s":{"x_min":27.625,"x_max":668.046875,"ha":711,"o":"m 447 206 q 416 254 447 233 q 304 292 385 276 q 111 370 176 318 q 46 515 46 423 q 127 679 46 612 q 347 747 208 747 q 581 681 494 747 q 663 512 668 616 l 662 508 l 440 508 q 418 574 440 551 q 347 596 396 596 q 286 576 311 596 q 262 526 262 557 q 290 477 262 497 q 404 440 318 456 q 603 361 538 414 q 668 213 668 309 q 580 50 668 114 q 347 -14 492 -14 q 110 61 198 -14 q 27 231 23 137 l 29 235 l 236 235 q 268 160 238 183 q 354 137 298 137 q 423 155 400 137 q 447 206 447 173 "},"B":{"x_min":77.3125,"x_max":840.3125,"ha":892,"o":"m 77 0 l 77 988 l 416 988 q 703 919 600 988 q 806 717 806 851 q 773 591 806 646 q 670 509 739 536 q 798 429 757 489 q 840 293 840 370 q 743 74 840 148 q 465 0 646 0 l 77 0 m 307 425 l 307 176 l 465 176 q 575 205 538 176 q 611 294 611 234 q 580 392 611 358 q 478 425 548 425 l 307 425 m 307 577 l 421 577 q 537 607 499 578 q 576 691 576 635 q 537 782 576 754 q 416 811 497 811 l 307 811 l 307 577 "},"…":{"x_min":99.234375,"x_max":990.796875,"ha":1076,"o":"m 327 0 l 99 0 l 99 192 l 327 192 l 327 0 m 659 0 l 431 0 l 431 192 l 659 192 l 659 0 m 990 0 l 762 0 l 762 192 l 990 192 l 990 0 "},"?":{"x_min":12.15625,"x_max":691.109375,"ha":707,"o":"m 208 282 q 242 423 209 376 q 364 533 276 471 q 435 603 409 561 q 461 700 461 645 q 431 791 461 757 q 344 825 400 825 q 268 797 299 825 q 236 715 238 770 l 13 715 l 12 719 q 102 931 10 860 q 344 1002 193 1002 q 598 920 505 1002 q 691 700 691 839 q 640 544 691 615 q 512 432 590 473 q 453 371 468 404 q 438 282 438 338 l 208 282 m 437 0 l 209 0 l 209 183 l 437 183 l 437 0 "},"H":{"x_min":77.3125,"x_max":901.359375,"ha":979,"o":"m 901 0 l 672 0 l 672 397 l 307 397 l 307 0 l 77 0 l 77 988 l 307 988 l 307 574 l 672 574 l 672 988 l 901 988 l 901 0 "},"c":{"x_min":30.515625,"x_max":680.328125,"ha":709,"o":"m 378 162 q 446 187 424 162 q 469 261 469 212 l 678 261 l 680 257 q 597 61 682 137 q 378 -14 511 -14 q 121 89 211 -14 q 30 358 30 193 l 30 374 q 120 642 30 538 q 376 747 210 747 q 599 669 516 747 q 680 456 682 591 l 678 452 l 469 452 q 446 537 469 504 q 376 570 423 570 q 285 517 311 570 q 259 374 259 463 l 259 358 q 285 214 259 266 q 378 162 311 162 "},"‼":{"x_min":78,"x_max":690.90625,"ha":766,"o":"m 307 350 l 78 350 l 78 988 l 307 988 l 307 350 m 307 0 l 78 0 l 78 191 l 307 191 l 307 0 m 690 350 l 461 350 l 461 988 l 690 988 l 690 350 m 690 0 l 461 0 l 461 191 l 690 191 l 690 0 "},"•":{"x_min":90.875,"x_max":434.734375,"ha":513,"o":"m 90 551 q 137 669 90 623 q 261 715 184 715 q 388 669 341 715 q 434 551 434 624 l 434 479 q 388 362 434 406 q 263 318 341 318 q 137 362 184 318 q 90 479 90 407 l 90 551 "},"Ὅ":{"x_min":-119.296875,"x_max":893.890625,"ha":950,"o":"m 893 405 q 778 104 893 222 q 476 -14 662 -14 q 171 104 288 -14 q 54 405 54 222 l 54 582 q 171 883 54 764 q 474 1002 287 1002 q 777 883 660 1002 q 893 582 893 764 l 893 405 m 665 584 q 615 757 665 690 q 474 825 565 825 q 332 758 381 825 q 283 584 283 690 l 283 405 q 333 230 283 297 q 476 162 383 162 q 615 230 566 162 q 665 405 665 297 l 665 584 m 70 938 l 139 1151 l 282 1151 l 282 1136 l 126 920 l 70 920 l 70 938 m -119 1029 l -23 1150 l 49 1150 l -5 1011 l -5 918 l -119 918 l -119 1029 "},"(":{"x_min":81.390625,"x_max":463.21875,"ha":493,"o":"m 81 401 q 181 848 81 665 q 417 1084 282 1031 l 421 1084 l 463 976 q 320 770 376 912 q 263 402 263 627 l 263 381 q 320 13 263 155 q 463 -192 376 -128 l 421 -300 l 417 -300 q 181 -64 282 -247 q 81 382 81 118 l 81 401 "},"U":{"x_min":72.5625,"x_max":887.796875,"ha":961,"o":"m 887 988 l 887 340 q 775 78 887 171 q 481 -14 663 -14 q 185 78 297 -14 q 72 340 72 171 l 72 988 l 302 988 l 302 340 q 349 206 302 249 q 481 162 396 162 q 612 205 566 162 q 657 340 657 249 l 657 988 l 887 988 "},"◊":{"x_min":17.640625,"x_max":727.734375,"ha":741,"o":"m 256 988 l 489 988 l 727 493 l 489 0 l 255 0 l 17 493 l 256 988 m 486 493 l 387 781 l 373 834 l 369 834 l 355 781 l 258 493 l 356 206 l 370 152 l 374 152 l 388 206 l 486 493 "},"F":{"x_min":77.3125,"x_max":771.8125,"ha":798,"o":"m 702 397 l 307 397 l 307 0 l 77 0 l 77 988 l 771 988 l 771 811 l 307 811 l 307 574 l 702 574 l 702 397 "},":":{"x_min":92.234375,"x_max":320.796875,"ha":416,"o":"m 320 0 l 92 0 l 92 192 l 320 192 l 320 0 m 320 541 l 92 541 l 92 734 l 320 734 l 320 541 "},"*":{"x_min":17.640625,"x_max":602.9375,"ha":623,"o":"m 225 650 l 17 711 l 59 839 l 261 750 l 246 988 l 381 988 l 364 745 l 562 832 l 602 703 l 393 641 l 532 462 l 423 383 l 305 582 l 189 390 l 80 466 l 225 650 "},"†":{"x_min":33.90625,"x_max":704.671875,"ha":738,"o":"m 704 550 l 482 550 l 482 0 l 253 0 l 253 550 l 33 550 l 33 734 l 253 734 l 253 988 l 482 988 l 482 734 l 704 734 l 704 550 "},"V":{"x_min":-0.671875,"x_max":885.765625,"ha":885,"o":"m 432 267 l 438 231 l 442 231 l 449 265 l 645 988 l 885 988 l 565 0 l 318 0 l 0 988 l 238 988 l 432 267 "},"0":{"x_min":58.328125,"x_max":746.046875,"ha":804,"o":"m 746 390 q 653 88 746 190 q 402 -14 560 -14 q 151 88 244 -14 q 58 390 58 190 l 58 597 q 150 899 58 797 q 401 1002 242 1002 q 652 899 559 1002 q 746 597 746 797 l 746 390 m 517 613 q 487 776 517 726 q 401 825 457 825 q 315 776 344 825 q 286 613 286 726 l 286 375 q 316 211 286 260 q 402 162 345 162 q 488 211 459 162 q 517 375 517 260 l 517 613 "},"”":{"x_min":25.203125,"x_max":482.65625,"ha":507,"o":"m 247 926 l 137 689 l 25 689 l 65 927 l 65 1058 l 247 1058 l 247 926 m 482 926 l 372 689 l 260 689 l 300 927 l 300 1058 l 482 1058 l 482 926 "},"ʼ":{"x_min":31.203125,"x_max":253.65625,"ha":270,"o":"m 253 926 l 143 689 l 31 689 l 71 927 l 71 1058 l 253 1058 l 253 926 "},"@":{"x_min":28.328125,"x_max":1173.421875,"ha":1227,"o":"m 1172 352 q 1083 94 1166 203 q 834 -14 999 -14 q 739 16 779 -14 q 682 103 699 47 q 612 16 655 45 q 513 -12 570 -12 q 358 68 412 -12 q 319 281 305 148 q 418 554 337 452 q 617 657 500 657 q 749 639 699 657 q 858 585 798 621 l 856 582 l 859 582 l 825 198 q 833 117 822 139 q 863 95 844 95 q 985 168 939 95 q 1036 352 1030 241 q 946 710 1047 582 q 634 839 845 839 q 308 701 429 839 q 177 324 187 562 q 275 -43 166 91 q 590 -178 385 -178 q 708 -165 647 -178 q 814 -134 769 -153 l 840 -246 q 724 -291 794 -275 q 587 -307 654 -307 q 165 -138 313 -307 q 29 324 17 30 q 204 785 41 615 q 636 956 366 956 q 1042 794 902 956 q 1172 352 1183 633 m 487 281 q 499 158 481 200 q 558 116 517 116 q 623 137 594 116 q 674 212 652 157 l 701 519 q 672 525 686 522 q 643 527 657 527 q 536 466 573 527 q 487 281 499 404 "},"i":{"x_min":75.28125,"x_max":305.203125,"ha":380,"o":"m 305 0 l 75 0 l 75 734 l 305 734 l 305 0 m 305 904 l 75 904 l 75 1057 l 305 1057 l 305 904 "},"]":{"x_min":9.5,"x_max":318.765625,"ha":391,"o":"m 9 1157 l 318 1157 l 318 -237 l 9 -237 l 9 -70 l 90 -70 l 90 990 l 9 990 l 9 1157 "},"m":{"x_min":65.109375,"x_max":1130.59375,"ha":1196,"o":"m 280 734 l 288 636 q 376 718 323 689 q 496 747 428 747 q 614 717 564 747 q 689 626 663 687 q 776 715 722 683 q 900 747 829 747 q 1069 673 1007 747 q 1130 446 1130 599 l 1130 0 l 900 0 l 900 446 q 878 544 900 517 q 812 570 856 570 q 753 558 779 570 q 710 525 728 546 q 711 505 710 514 q 712 489 712 497 l 712 0 l 482 0 l 482 446 q 461 544 482 517 q 394 570 439 570 q 337 558 362 570 q 294 525 311 546 l 294 0 l 65 0 l 65 734 l 280 734 "},"′":{"x_min":29.15625,"x_max":177.015625,"ha":214,"o":"m 177 859 l 126 668 l 29 668 l 29 1058 l 177 1058 l 177 859 "},"8":{"x_min":58.328125,"x_max":746.046875,"ha":804,"o":"m 725 724 q 688 594 725 651 q 585 505 651 538 q 703 410 660 471 q 746 272 746 350 q 651 59 746 133 q 402 -14 556 -14 q 153 60 249 -14 q 58 272 58 134 q 101 410 58 350 q 219 505 143 471 q 114 594 151 538 q 78 724 78 651 q 167 929 78 856 q 401 1002 256 1002 q 636 929 548 1002 q 725 724 725 856 m 517 290 q 485 383 517 349 q 401 417 453 417 q 318 383 349 417 q 287 290 287 349 q 318 196 287 230 q 402 162 349 162 q 485 196 454 162 q 517 290 517 230 m 497 711 q 472 795 497 764 q 401 825 448 825 q 331 795 356 825 q 307 711 307 765 q 332 625 307 657 q 402 594 356 594 q 473 625 448 594 q 497 711 497 657 "},"R":{"x_min":77.3125,"x_max":891.859375,"ha":917,"o":"m 307 379 l 307 0 l 77 0 l 77 988 l 457 988 q 729 908 628 988 q 829 691 829 829 q 789 560 829 615 q 670 470 748 505 q 800 384 760 444 q 840 234 840 324 l 840 172 q 851 84 840 133 q 891 13 863 34 l 891 0 l 655 0 q 620 74 628 21 q 611 173 611 128 l 611 233 q 574 341 611 304 q 465 379 537 379 l 307 379 m 307 555 l 458 555 q 564 586 527 555 q 600 677 600 618 q 563 774 600 737 q 457 811 525 811 l 307 811 l 307 555 "},"o":{"x_min":34.59375,"x_max":744.6875,"ha":781,"o":"m 34 373 q 128 642 34 538 q 389 747 221 747 q 651 642 557 747 q 744 373 744 538 l 744 359 q 651 89 744 193 q 390 -14 557 -14 q 128 89 221 -14 q 34 359 34 193 l 34 373 m 263 359 q 292 214 263 267 q 390 162 321 162 q 486 215 457 162 q 516 359 516 267 l 516 373 q 486 516 516 462 q 389 570 457 570 q 292 516 321 570 q 263 373 263 462 l 263 359 "},"5":{"x_min":58.890625,"x_max":747.40625,"ha":804,"o":"m 78 434 l 135 988 l 714 988 l 714 810 l 322 810 l 297 604 q 361 636 322 624 q 446 650 400 648 q 669 565 591 652 q 747 318 747 478 q 658 82 747 179 q 404 -14 569 -14 q 159 64 263 -14 q 59 270 55 142 l 60 274 l 284 287 q 317 195 284 228 q 404 162 349 162 q 492 206 466 162 q 518 316 518 249 q 489 445 518 398 q 397 491 460 491 q 323 472 351 491 q 284 422 295 452 l 78 434 "},"̏":{"x_min":-721.546875,"x_max":-91,"ha":0,"o":"m -352 852 l -354 849 l -533 849 l -721 1025 l -720 1029 l -515 1029 l -352 852 m -91 849 l -277 849 l -439 1026 l -438 1029 l -231 1029 l -91 849 "},"7":{"x_min":35.265625,"x_max":747.40625,"ha":804,"o":"m 747 811 q 543 481 599 642 q 463 95 486 321 l 454 0 l 225 0 l 233 95 q 326 488 254 307 q 527 811 399 669 l 35 811 l 35 988 l 747 988 l 747 811 "},"K":{"x_min":77.3125,"x_max":913.5625,"ha":899,"o":"m 413 396 l 307 396 l 307 0 l 77 0 l 77 988 l 307 988 l 307 601 l 385 601 l 602 988 l 887 988 l 581 540 l 913 0 l 634 0 l 413 396 "},",":{"x_min":37.984375,"x_max":283.5,"ha":367,"o":"m 283 -5 l 172 -221 l 37 -221 l 85 0 l 85 172 l 283 172 l 283 -5 "},"d":{"x_min":34.59375,"x_max":715.53125,"ha":781,"o":"m 34 365 q 109 641 34 536 q 320 747 184 747 q 412 723 371 747 q 486 656 453 700 l 486 1058 l 715 1058 l 715 0 l 516 0 l 500 90 q 421 12 466 39 q 319 -14 376 -14 q 109 86 183 -14 q 34 351 34 186 l 34 365 m 263 351 q 289 212 263 261 q 377 162 316 162 q 441 175 413 162 q 486 214 468 188 l 486 510 q 441 555 468 539 q 379 570 414 570 q 290 514 318 570 q 263 365 263 458 l 263 351 "},"E":{"x_min":77.3125,"x_max":765.03125,"ha":790,"o":"m 694 422 l 307 422 l 307 176 l 763 176 l 763 0 l 77 0 l 77 988 l 765 988 l 765 811 l 307 811 l 307 599 l 694 599 l 694 422 "},"Y":{"x_min":-2.03125,"x_max":891.1875,"ha":888,"o":"m 441 556 l 445 556 l 642 988 l 891 988 l 555 347 l 555 0 l 326 0 l 326 358 l -2 988 l 245 988 l 441 556 "},"\"":{"x_min":29.15625,"x_max":410.328125,"ha":440,"o":"m 184 875 l 126 706 l 29 706 l 29 1058 l 184 1058 l 184 875 m 410 875 l 353 706 l 256 706 l 256 1058 l 410 1058 l 410 875 "},"‹":{"x_min":73.25,"x_max":397.4375,"ha":441,"o":"m 240 373 l 397 102 l 257 102 l 73 367 l 73 380 l 257 644 l 397 644 l 240 373 "},"˙":{"x_min":93.59375,"x_max":328.9375,"ha":450,"o":"m 328 824 l 93 824 l 93 1000 l 328 1000 l 328 824 "},"″":{"x_min":29.15625,"x_max":410.328125,"ha":440,"o":"m 184 875 l 126 706 l 29 706 l 29 1058 l 184 1058 l 184 875 m 410 875 l 353 706 l 256 706 l 256 1058 l 410 1058 l 410 875 "},"„":{"x_min":23.734375,"x_max":473.40625,"ha":497,"o":"m 231 22 l 121 -146 l 23 -146 l 64 13 l 64 209 l 231 209 l 231 22 m 473 22 l 363 -146 l 265 -146 l 306 19 l 306 209 l 473 209 l 473 22 "}," ":{"x_min":0,"x_max":0,"ha":473},"|":{"x_min":116.65625,"x_max":241.453125,"ha":355,"o":"m 241 -183 l 116 -183 l 116 988 l 241 988 l 241 -183 "}," ":{"x_min":0,"x_max":0,"ha":284}," ":{"x_min":0,"x_max":0,"ha":1417},"b":{"x_min":65.109375,"x_max":744.6875,"ha":781,"o":"m 744 351 q 672 84 744 183 q 459 -14 600 -14 q 354 12 399 -14 q 278 86 309 38 l 263 0 l 65 0 l 65 1058 l 294 1058 l 294 662 q 365 724 324 702 q 458 747 405 747 q 672 643 600 747 q 744 365 744 539 l 744 351 m 516 365 q 491 516 516 462 q 400 570 467 570 q 336 556 363 570 q 294 516 309 542 l 294 209 q 337 173 310 185 q 402 162 363 162 q 493 209 470 162 q 516 351 516 256 l 516 365 "},"q":{"x_min":34.59375,"x_max":716.203125,"ha":781,"o":"m 34 365 q 109 641 34 536 q 320 747 184 747 q 422 719 378 747 q 499 641 467 692 l 517 734 l 716 734 l 716 -282 l 486 -282 l 486 68 q 414 7 455 28 q 319 -14 372 -14 q 109 86 183 -14 q 34 351 34 186 l 34 365 m 263 351 q 289 212 263 261 q 377 162 316 162 q 442 174 415 162 q 486 209 470 186 l 486 514 q 443 556 470 542 q 379 570 416 570 q 290 514 318 570 q 263 365 263 458 l 263 351 "},"˳":{"x_min":99.703125,"x_max":363.53125,"ha":447,"o":"m 99 -152 q 137 -68 99 -102 q 232 -35 175 -35 q 325 -68 288 -35 q 363 -152 363 -102 q 325 -235 363 -202 q 232 -268 288 -268 q 137 -235 175 -268 q 99 -152 99 -202 m 184 -152 q 197 -186 184 -172 q 232 -200 210 -200 q 265 -186 252 -200 q 278 -152 278 -173 q 265 -116 278 -130 q 232 -103 252 -103 q 197 -116 210 -103 q 184 -152 184 -130 "},"̃":{"x_min":-640.671875,"x_max":-114.375,"ha":0,"o":"m -114 1004 q -155 892 -114 938 q -256 846 -195 846 q -368 874 -304 846 q -467 903 -432 903 q -505 880 -490 903 q -519 828 -519 858 l -640 862 q -600 973 -640 926 q -498 1020 -559 1020 q -392 992 -460 1020 q -288 964 -323 964 q -251 985 -266 964 q -235 1038 -235 1007 l -114 1004 "},"​":{"x_min":0,"x_max":0,"ha":0},"z":{"x_min":44.078125,"x_max":667.375,"ha":714,"o":"m 333 176 l 667 176 l 667 0 l 44 0 l 44 127 l 370 557 l 58 557 l 58 734 l 660 734 l 660 610 l 333 176 "},"~":{"x_min":63.75,"x_max":811.828125,"ha":878,"o":"m 811 521 q 751 326 811 403 q 598 249 691 249 q 493 269 541 249 q 394 337 445 290 q 340 378 362 366 q 290 391 318 391 q 241 357 261 391 q 220 274 220 323 l 63 295 q 122 490 63 413 q 276 567 181 567 q 381 545 330 567 q 481 479 432 523 q 533 438 510 451 q 582 426 556 426 q 633 460 611 426 q 654 542 654 493 l 811 521 "},"[":{"x_min":73.25,"x_max":382.515625,"ha":391,"o":"m 382 990 l 302 990 l 302 -70 l 382 -70 l 382 -237 l 73 -237 l 73 1157 l 382 1157 l 382 990 "},"L":{"x_min":77.3125,"x_max":732.484375,"ha":752,"o":"m 307 176 l 732 176 l 732 0 l 77 0 l 77 988 l 307 988 l 307 176 "}," ":{"x_min":0,"x_max":0,"ha":346},"%":{"x_min":61.71875,"x_max":970.53125,"ha":1032,"o":"m 61 797 q 118 944 61 886 q 280 1002 175 1002 q 444 944 387 1002 q 501 797 501 886 l 501 745 q 444 600 501 657 q 282 542 387 542 q 119 600 176 542 q 61 745 61 658 l 61 797 m 208 745 q 227 689 208 711 q 282 666 246 666 q 335 689 316 666 q 354 745 354 711 l 354 797 q 335 855 354 831 q 280 878 316 878 q 227 855 246 878 q 208 797 208 831 l 208 745 m 530 241 q 588 387 530 329 q 750 445 645 445 q 913 387 857 445 q 970 241 970 329 l 970 189 q 913 43 970 100 q 752 -14 857 -14 q 588 43 646 -14 q 530 189 530 101 l 530 241 m 677 189 q 699 133 677 156 q 752 109 720 109 q 809 130 794 109 q 824 189 824 151 l 824 241 q 804 298 824 274 q 750 321 785 321 q 696 298 715 321 q 677 241 677 274 l 677 189 m 318 74 l 211 127 l 693 899 l 800 845 l 318 74 "},"P":{"x_min":77.3125,"x_max":859.984375,"ha":912,"o":"m 307 339 l 307 0 l 77 0 l 77 988 l 478 988 q 756 898 653 988 q 859 663 859 808 q 756 428 859 517 q 478 339 653 339 l 307 339 m 307 515 l 478 515 q 591 556 552 515 q 630 661 630 597 q 591 769 630 727 q 478 811 552 811 l 307 811 l 307 515 "},"_":{"x_min":0,"x_max":612.4375,"ha":613,"o":"m 612 -170 l 0 -170 l 0 0 l 612 0 l 612 -170 "},"+":{"x_min":30.515625,"x_max":707.390625,"ha":742,"o":"m 476 560 l 707 560 l 707 364 l 476 364 l 476 98 l 262 98 l 262 364 l 30 364 l 30 560 l 262 560 l 262 817 l 476 817 l 476 560 "},"‚":{"x_min":23.734375,"x_max":246.875,"ha":271,"o":"m 246 11 l 152 -179 l 23 -179 l 64 2 l 64 210 l 246 210 l 246 11 "},"'":{"x_min":29.15625,"x_max":177.015625,"ha":214,"o":"m 177 859 l 126 668 l 29 668 l 29 1058 l 177 1058 l 177 859 "},"˛":{"x_min":61.046875,"x_max":365.5625,"ha":437,"o":"m 279 0 q 237 -57 249 -35 q 225 -111 225 -79 q 234 -137 225 -124 q 279 -151 244 -151 q 312 -148 298 -151 q 341 -139 326 -144 l 365 -253 q 310 -274 341 -266 q 239 -283 280 -283 q 111 -244 161 -283 q 61 -137 61 -206 q 87 -40 61 -86 q 169 41 113 5 l 279 0 "}," ":{"x_min":0,"x_max":0,"ha":1417},"T":{"x_min":17.640625,"x_max":766.390625,"ha":782,"o":"m 766 811 l 505 811 l 505 0 l 276 0 l 276 811 l 17 811 l 17 988 l 766 988 l 766 811 "},"j":{"x_min":-78,"x_max":307.90625,"ha":372,"o":"m 307 734 l 307 -9 q 234 -221 307 -146 q 29 -296 160 -296 q -24 -293 0 -296 q -78 -284 -49 -290 l -68 -111 q -34 -117 -48 -115 q 0 -119 -21 -119 q 57 -91 37 -119 q 78 -9 78 -64 l 78 734 l 307 734 m 303 905 l 73 905 l 73 1058 l 303 1058 l 303 905 "},"1":{"x_min":97.671875,"x_max":546.640625,"ha":804,"o":"m 546 0 l 318 0 l 318 757 l 97 757 l 97 918 l 546 988 l 546 0 "},"›":{"x_min":51.546875,"x_max":376.40625,"ha":421,"o":"m 191 644 l 376 380 l 376 367 l 191 102 l 51 102 l 208 373 l 51 644 l 191 644 "}," ":{"x_min":0,"x_max":0,"ha":781},"<":{"x_min":31.203125,"x_max":630.75,"ha":708,"o":"m 256 370 l 256 366 l 630 243 l 630 35 l 31 279 l 31 460 l 630 704 l 630 496 l 256 370 "},"t":{"x_min":4.75,"x_max":478.140625,"ha":503,"o":"m 336 916 l 336 734 l 460 734 l 460 575 l 336 575 l 336 238 q 352 182 336 199 q 395 165 368 165 q 429 166 417 165 q 461 171 442 167 l 478 2 q 409 -10 440 -6 q 337 -14 379 -14 q 166 46 224 -14 q 107 237 107 106 l 107 575 l 4 575 l 4 734 l 107 734 l 107 916 l 336 916 "},"W":{"x_min":6.78125,"x_max":1226.90625,"ha":1234,"o":"m 871 339 l 875 339 l 1005 988 l 1226 988 l 1000 0 l 784 0 l 618 609 l 614 609 l 449 0 l 233 0 l 6 988 l 229 988 l 358 339 l 362 339 l 537 988 l 696 988 l 871 339 "},">":{"x_min":77.3125,"x_max":676.859375,"ha":708,"o":"m 77 496 l 77 704 l 676 460 l 676 279 l 77 35 l 77 243 l 451 366 l 451 370 l 77 496 "},"v":{"x_min":0,"x_max":710.09375,"ha":714,"o":"m 339 302 l 353 224 l 357 223 l 372 302 l 469 734 l 710 734 l 471 0 l 238 0 l 0 734 l 241 734 l 339 302 "},"&":{"x_min":40.6875,"x_max":912.203125,"ha":936,"o":"m 213 520 q 148 632 170 581 q 127 735 127 683 q 204 927 127 853 q 406 1002 280 1002 q 582 932 514 1002 q 649 764 649 863 q 618 641 649 698 q 535 546 588 584 l 476 504 l 641 314 q 678 398 665 352 q 691 493 691 443 l 852 493 q 831 317 852 397 q 763 175 809 237 l 912 3 l 910 0 l 660 0 l 610 56 q 492 3 551 20 q 363 -14 434 -14 q 128 63 215 -14 q 40 265 40 140 q 82 399 40 344 q 211 519 124 454 l 213 520 m 379 162 q 437 168 408 162 q 495 187 467 174 l 314 392 l 308 388 q 279 336 287 362 q 270 281 270 311 q 302 195 270 228 q 379 162 333 162 m 325 738 q 338 684 325 711 q 377 624 351 656 l 417 649 q 468 697 455 674 q 481 748 481 720 q 460 801 481 778 q 406 825 440 825 q 346 800 367 825 q 325 738 325 775 "},"‛":{"x_min":65.375,"x_max":287.796875,"ha":294,"o":"m 65 926 l 175 689 l 287 689 l 247 927 l 247 1058 l 65 1058 l 65 926 "},"I":{"x_min":92.921875,"x_max":321.484375,"ha":414,"o":"m 321 0 l 92 0 l 92 988 l 321 988 l 321 0 "},"˝":{"x_min":110,"x_max":739.546875,"ha":633,"o":"m 533 1029 l 738 1029 l 739 1025 l 551 849 l 372 849 l 370 852 l 533 1029 m 249 1029 l 456 1029 l 457 1026 l 295 849 l 110 849 l 249 1029 "},"G":{"x_min":59.6875,"x_max":857.28125,"ha":920,"o":"m 857 136 q 711 31 807 76 q 471 -14 615 -14 q 173 98 288 -14 q 59 390 59 211 l 59 597 q 171 888 59 775 q 458 1002 282 1002 q 744 913 649 1002 q 851 673 838 825 l 850 669 l 635 669 q 584 786 623 747 q 465 825 545 825 q 337 762 385 825 q 288 598 288 698 l 288 390 q 336 225 288 287 q 471 162 384 162 q 570 172 534 162 q 627 199 606 182 l 627 356 l 472 356 l 472 508 l 857 508 l 857 136 "},"ə":{"x_min":44.765625,"x_max":702.640625,"ha":735,"o":"m 346 749 q 605 646 507 749 q 702 392 702 544 l 702 366 q 614 92 702 198 q 363 -13 526 -13 q 129 76 213 -13 q 44 319 44 165 l 44 440 l 463 440 l 464 444 q 417 536 456 499 q 315 572 379 572 q 211 562 250 572 q 113 527 172 551 l 59 666 q 182 725 105 701 q 346 749 258 749 m 363 163 q 437 198 412 163 q 467 293 461 233 l 465 296 l 267 296 l 267 279 q 290 192 267 222 q 363 163 314 163 "},"ˉ":{"x_min":109.1875,"x_max":607.015625,"ha":722,"o":"m 607 872 l 109 872 l 109 989 l 607 989 l 607 872 "},"`":{"x_min":49.734375,"x_max":427.5,"ha":471,"o":"m 427 822 l 241 822 l 49 998 l 51 1002 l 286 1002 l 427 822 "},"r":{"x_min":65.109375,"x_max":501.890625,"ha":513,"o":"m 479 531 l 396 532 q 331 518 356 532 q 294 481 306 505 l 294 0 l 65 0 l 65 734 l 280 734 l 288 625 q 349 715 311 683 q 438 747 387 747 q 472 744 455 747 q 501 738 489 742 l 479 531 "},"x":{"x_min":3.390625,"x_max":716.875,"ha":714,"o":"m 355 517 l 359 517 l 452 734 l 709 734 l 496 371 l 716 0 l 459 0 l 362 223 l 358 223 l 260 0 l 3 0 l 223 371 l 10 734 l 265 734 l 355 517 "},"h":{"x_min":58.328125,"x_max":718.234375,"ha":781,"o":"m 287 642 q 368 719 320 692 q 474 747 416 747 q 653 667 588 747 q 718 421 718 588 l 718 0 l 489 0 l 489 422 q 463 538 489 506 q 385 570 438 570 q 328 560 352 570 q 287 533 303 551 l 287 0 l 58 0 l 58 1058 l 287 1058 l 287 642 "},".":{"x_min":92.234375,"x_max":320.796875,"ha":420,"o":"m 320 0 l 92 0 l 92 192 l 320 192 l 320 0 "},";":{"x_min":65.984375,"x_max":311.796875,"ha":393,"o":"m 311 541 l 83 541 l 83 734 l 311 734 l 311 541 m 311 -5 l 200 -221 l 65 -221 l 113 0 l 113 172 l 311 172 l 311 -5 "},"f":{"x_min":8.140625,"x_max":518.15625,"ha":504,"o":"m 113 0 l 113 575 l 8 575 l 8 734 l 113 734 l 113 809 q 189 1004 113 936 q 404 1072 265 1072 q 457 1068 430 1072 q 518 1057 484 1064 l 501 888 q 468 893 482 892 q 432 895 453 895 q 366 873 389 895 q 343 809 343 851 l 343 734 l 486 734 l 486 575 l 343 575 l 343 0 l 113 0 "},"“":{"x_min":23.734375,"x_max":477.1875,"ha":501,"o":"m 23 821 l 133 1058 l 246 1058 l 205 825 l 205 689 l 23 689 l 23 821 m 254 821 l 364 1058 l 477 1058 l 436 825 l 436 689 l 254 689 l 254 821 "}," ":{"x_min":0,"x_max":0,"ha":354},"A":{"x_min":4.75,"x_max":889.15625,"ha":882,"o":"m 602 192 l 290 192 l 235 0 l 4 0 l 323 988 l 569 988 l 889 0 l 658 0 l 602 192 m 341 368 l 551 368 l 448 722 l 444 722 l 341 368 "},"6":{"x_min":56.296875,"x_max":763.671875,"ha":804,"o":"m 466 1002 q 570 992 524 1002 q 670 960 615 982 l 632 793 q 549 815 585 808 q 467 822 514 822 q 337 764 386 822 q 290 597 288 707 l 292 594 q 371 647 322 628 q 484 666 421 666 q 690 570 616 666 q 763 327 763 475 q 666 83 763 180 q 417 -14 569 -14 q 155 92 255 -14 q 56 384 56 198 l 56 582 q 171 890 56 778 q 466 1002 286 1002 m 421 491 q 339 478 373 491 q 285 442 305 465 l 285 383 q 320 219 285 276 q 417 162 355 162 q 501 211 469 162 q 534 327 534 259 q 502 446 534 402 q 421 491 471 491 "},"‘":{"x_min":23.734375,"x_max":246.1875,"ha":270,"o":"m 23 821 l 133 1058 l 246 1058 l 205 825 l 205 689 l 23 689 l 23 821 "},"O":{"x_min":54.9375,"x_max":893.890625,"ha":950,"o":"m 893 405 q 778 104 893 222 q 476 -14 662 -14 q 171 104 288 -14 q 54 405 54 222 l 54 582 q 171 883 54 764 q 474 1002 287 1002 q 777 883 660 1002 q 893 582 893 764 l 893 405 m 665 584 q 615 757 665 690 q 474 825 565 825 q 332 758 381 825 q 283 584 283 690 l 283 405 q 333 230 283 297 q 476 162 383 162 q 615 230 566 162 q 665 405 665 297 l 665 584 "},"n":{"x_min":61.046875,"x_max":720.953125,"ha":781,"o":"m 276 734 l 284 630 q 373 716 320 685 q 491 747 426 747 q 660 677 599 747 q 720 454 720 607 l 720 0 l 491 0 l 491 455 q 465 544 491 518 q 388 570 439 570 q 331 559 356 570 q 289 527 307 547 l 289 0 l 61 0 l 61 734 l 276 734 "},"﻿":{"x_min":0,"x_max":0,"ha":0},"3":{"x_min":36.515625,"x_max":749.4375,"ha":804,"o":"m 269 590 l 377 590 q 472 623 438 590 q 505 715 505 656 q 475 793 505 762 q 388 825 445 825 q 309 799 343 825 q 276 733 276 774 l 53 733 l 52 737 q 145 928 48 855 q 380 1002 242 1002 q 637 928 541 1002 q 733 720 733 854 q 692 596 733 652 q 580 507 650 539 q 704 419 659 478 q 749 277 749 359 q 645 63 749 141 q 380 -14 541 -14 q 137 58 241 -14 q 36 270 33 131 l 37 274 l 261 274 q 298 194 261 226 q 388 162 335 162 q 484 196 448 162 q 520 281 520 230 q 483 386 520 353 q 377 419 445 419 l 269 419 l 269 590 "},"9":{"x_min":54.9375,"x_max":741.96875,"ha":804,"o":"m 355 162 q 468 211 423 162 q 513 347 513 260 l 513 391 q 436 329 480 350 q 342 309 392 309 q 131 400 207 309 q 54 649 54 491 q 151 899 54 796 q 399 1002 247 1002 q 645 894 548 1002 q 741 597 741 786 l 741 363 q 632 89 741 192 q 355 -14 522 -14 q 249 -2 304 -14 q 145 28 195 8 l 169 192 q 259 169 217 176 q 355 162 301 162 m 392 473 q 462 487 431 473 q 513 524 493 500 l 513 626 q 481 774 513 723 q 398 825 448 825 q 315 772 345 825 q 284 649 284 718 q 311 520 284 568 q 392 473 338 473 "},"l":{"x_min":75.28125,"x_max":305.203125,"ha":380,"o":"m 305 0 l 75 0 l 75 1058 l 305 1058 l 305 0 "},"4":{"x_min":39.34375,"x_max":764.359375,"ha":804,"o":"m 664 385 l 764 385 l 764 208 l 664 208 l 664 0 l 435 0 l 435 208 l 52 208 l 39 349 l 435 985 l 435 987 l 664 987 l 664 385 m 244 385 l 435 385 l 435 689 l 431 690 l 413 662 l 244 385 "},"p":{"x_min":65.109375,"x_max":744.6875,"ha":781,"o":"m 744 351 q 670 85 744 185 q 459 -14 595 -14 q 365 6 406 -14 q 294 65 324 26 l 294 -282 l 65 -282 l 65 734 l 279 734 l 287 652 q 360 722 318 698 q 458 747 402 747 q 669 641 594 747 q 744 365 744 536 l 744 351 m 516 365 q 489 514 516 458 q 402 570 461 570 q 336 556 363 570 q 294 515 309 542 l 294 209 q 337 173 310 185 q 403 162 364 162 q 490 212 463 162 q 516 351 516 261 l 516 365 "},"‡":{"x_min":69.859375,"x_max":740.625,"ha":809,"o":"m 740 0 l 518 0 l 518 -282 l 288 -282 l 288 0 l 69 0 l 69 176 l 288 176 l 288 557 l 69 557 l 69 734 l 288 734 l 288 988 l 518 988 l 518 734 l 740 734 l 740 557 l 518 557 l 518 176 l 740 176 l 740 0 "}," ":{"x_min":0,"x_max":0,"ha":142}}}
